Coordinates
version=1
nRows=15
nColumns=34
inDegrees=yes

Units are S.I. units (second, meters, Newtons, ...)
If the header above contains a line with 'inDegrees', this indicates whether rotational values are in degrees (yes) or radians (no).

endheader
time	pelvis_tilt	pelvis_list	pelvis_rotation	pelvis_tx	pelvis_ty	pelvis_tz	hip_flexion_r	hip_adduction_r	hip_rotation_r	knee_angle_r	ankle_angle_r	subtalar_angle_r	mtp_angle_r	hip_flexion_l	hip_adduction_l	hip_rotation_l	knee_angle_l	ankle_angle_l	subtalar_angle_l	mtp_angle_l	lumbar_extension	lumbar_bending	lumbar_rotation	arm_flex_r	arm_add_r	arm_rot_r	elbow_flex_r	pro_sup_r	arm_flex_l	arm_add_l	arm_rot_l	elbow_flex_l	pro_sup_l
      8.13333330	     -5.41922524	      0.47080880	     -1.87634678	     -0.61811248	      0.80872714	     -0.17035502	     42.30140626	     -7.38017411	     -7.12078533	     65.57335784	     30.85642706	     -2.81174306	      0.00000000	     42.12872187	    -10.27632738	    -11.59816592	     67.26402425	     30.11086150	      2.67739202	      0.00000000	    -39.16528583	     -0.47612021	      2.71116819	     15.89578738	    -10.05201176	    -11.79411146	     31.44882431	     96.29279409	     15.74458080	    -13.60524099	      5.92870397	     35.20581195	     98.25477766
      8.15000000	     -6.16538694	      0.50306471	     -1.84036299	     -0.61455364	      0.81754528	     -0.16976276	     41.49401766	     -7.18916952	     -7.35532435	     63.04766063	     30.22676154	     -2.61936990	      0.00000000	     41.28381735	    -10.03976801	    -11.96262791	     64.73542367	     29.52846767	      3.09640656	      0.00000000	    -36.64588360	     -0.48708271	      2.58051135	     14.82525662	     -9.93776242	    -11.59052583	     31.20092095	     96.35597804	     14.52937631	    -13.59994290	      5.97680818	     34.88070784	     98.27882737
      8.16666670	     -7.38507921	      0.48204948	     -1.95396289	     -0.60937154	      0.82113012	     -0.16991781	     41.36236328	     -6.95067524	     -7.56766566	     60.74386934	     29.42233473	     -2.70497310	      0.00000000	     41.03620409	     -9.82381441	    -12.11365090	     62.35495927	     29.18741617	      3.42052462	      0.00000000	    -33.20466452	     -0.44832814	      2.42791978	     13.69775593	     -9.73400344	    -10.97273193	     30.64816578	     96.50434233	     12.97654136	    -13.57991710	      5.93042217	     34.22736099	     98.28333807
      8.18333330	     -8.18049362	      0.42133521	     -2.05513606	     -0.60568130	      0.83292271	     -0.17036938	     40.41413819	     -6.59917252	     -7.89663545	     57.61951076	     28.08712075	     -2.34250386	      0.00000000	     39.91869433	     -9.48493634	    -12.22215038	     59.37335172	     28.48078113	      3.77357478	      0.00000000	    -30.43170825	     -0.36524670	      2.36503941	     12.47513128	     -9.60812890	    -10.75267636	     30.23856144	     96.54847667	     11.55479755	    -13.50316776	      5.96777589	     33.83359417	     98.27986170
      8.20000000	     -8.90507017	      0.19243115	     -2.06440616	     -0.60129058	      0.84476033	     -0.17116866	     38.94476794	     -6.02178216	     -8.23997752	     53.87456719	     25.94647645	     -3.19681194	      0.00000000	     38.60674089	     -9.15018320	    -12.09105208	     55.95372167	     27.67064313	      4.10017431	      0.00000000	    -27.43459102	     -0.01767100	      2.09980469	     11.44426121	     -9.41589185	    -10.06894123	     29.26921031	     96.65136942	     10.05452122	    -13.33037687	      5.87332104	     32.89305829	     98.20769021
      8.21666670	     -9.52177374	      0.12768750	     -2.20046384	     -0.60024486	      0.85018640	     -0.17163997	     37.72756596	     -5.66298735	     -8.57541771	     50.63163406	     24.61977547	     -2.78496554	      0.00000000	     37.57043870	     -8.83965690	    -12.34511379	     52.90700086	     26.49503230	      4.26334990	      0.00000000	    -24.83354588	      0.07860258	      2.06918582	     10.29896580	     -9.29425469	     -9.80967371	     28.89879514	     96.67993133	      8.66246500	    -13.23206307	      5.92930849	     32.56608069	     98.18760062
      8.23333330	    -10.21986234	      0.15434775	     -2.23555165	     -0.59653189	      0.86000320	     -0.17395123	     36.47061638	     -5.37860713	     -8.66511739	     47.11975595	     22.75966434	     -3.41052748	      0.00000000	     36.61565996	     -8.20833364	    -12.42338962	     49.55994888	     24.74921352	      3.46905401	      0.00000000	    -22.07646460	      0.19381504	      1.67086718	      9.32031293	     -9.12630336	     -9.08337429	     28.15244050	     96.72737744	      7.27277684	    -13.06011275	      5.92345584	     31.88452791	     98.08492426
      8.25000000	    -11.12265371	      0.16434223	     -2.06586926	     -0.59715024	      0.86641095	     -0.17472674	     35.80206582	     -5.09943322	     -8.68281234	     43.81470944	     21.70159587	     -3.23786582	      0.00000000	     36.19482445	     -7.58155471	    -12.39645115	     46.60433225	     22.81579194	      2.77292014	      0.00000000	    -19.39994877	      0.31356342	      1.30769301	      8.25818666	     -9.09899242	     -8.29138909	     27.88098816	     96.72835998	      5.99371932	    -13.03344713	      6.02296651	     31.79778281	     97.98083939
      8.26666670	    -11.76224266	      0.11704015	     -1.65970086	     -0.59311294	      0.87862906	     -0.17609202	     34.40133940	     -4.84490487	     -8.89829481	     39.78822699	     19.96627075	     -3.15967414	      0.00000000	     35.23058868	     -6.88351495	    -12.29743619	     43.10659602	     20.19899772	      2.02381351	      0.00000000	    -17.09515471	      0.49739927	      0.92522163	      7.30562913	     -9.05207665	     -7.69483865	     27.67613960	     96.68267379	      4.93930657	    -12.91662819	      6.18785743	     31.71966544	     97.89656357
      8.28333330	    -12.50238903	      0.12055510	     -1.39062344	     -0.58920981	      0.88409406	     -0.17713974	     33.07044598	     -4.59939772	     -9.03367907	     35.70832048	     18.44670936	     -2.63324271	      0.00000000	     34.20827974	     -6.12625614	    -12.14663710	     39.17290064	     18.42183454	      2.35624468	      0.00000000	    -14.64498338	      0.57333248	      0.79105718	      6.17250385	     -9.01379739	     -7.38220341	     27.45527983	     96.65035476	      3.84243087	    -12.78417119	      6.34332270	     31.74240837	     97.85951228
      8.30000000	    -13.10198133	      0.11742252	     -1.14055032	     -0.59185205	      0.89502605	     -0.17845245	     31.49462390	     -4.20267411	     -8.92536849	     30.99629513	     16.37264212	     -2.90404914	      0.00000000	     32.90940707	     -5.16864349	    -11.60506940	     34.54607377	     16.09502582	      1.66540868	      0.00000000	    -12.70675639	      0.64152180	      0.62093874	      5.34765573	     -9.05034689	     -6.69218734	     27.21538721	     96.57335794	      2.91557275	    -12.69789531	      6.59955807	     31.83570010	     97.77445859
      8.31666670	    -13.38875345	      0.14056569	     -1.14124084	     -0.58802891	      0.90530253	     -0.17782424	     29.15074946	     -3.64245352	     -8.58572830	     25.61546096	     14.05332753	     -2.74246371	      0.00000000	     30.92126921	     -4.37855687	    -11.12553375	     29.69001592	     13.72435024	      1.43504423	      0.00000000	    -11.07461823	      0.63808872	      0.65074116	      4.65611698	     -9.07980147	     -5.97175377	     26.86198709	     96.48601761	      2.07451944	    -12.55083687	      6.79281433	     31.87888246	     97.66972992
      8.33333330	    -13.65766087	      0.30027138	     -1.23799870	     -0.58922633	      0.91278410	     -0.17916504	     27.06410517	     -3.21103632	     -7.96149756	     20.58854248	     11.72207488	     -2.63089730	      0.00000000	     28.93574392	     -3.50528484	    -10.69115781	     24.89910568	     11.29800439	      1.08736474	      0.00000000	     -9.73774131	      0.47095865	      0.75525652	      4.08472929	     -9.12550217	     -5.26094555	     26.79250738	     96.40040984	      1.36835375	    -12.47874808	      6.95791711	     32.17551385	     97.57817617
      8.35000000	    -13.82611164	      0.48736988	     -1.31345540	     -0.58639998	      0.91472948	     -0.17879720	     25.12994091	     -2.87715987	     -7.27212040	     16.17939520	      9.89661760	     -2.45430214	      0.00000000	     26.90232269	     -2.70052199	    -10.17725544	     20.44315393	      9.37253830	      0.81416365	      0.00000000	     -8.52389128	      0.26172462	      0.78141291	      3.52024676	     -9.14342139	     -4.57290648	     26.79086088	     96.31798865	      0.69410879	    -12.47441996	      7.11938060	     32.59424523	     97.50578850
      8.36666670	    -14.39369375	      0.69821955	     -1.45773569	     -0.58452740	      0.92047460	     -0.17842935	     23.83021262	     -2.64945305	     -6.83812233	     12.30784767	      8.24714684	     -1.89712951	      0.00000000	     25.44481754	     -2.00494040	     -9.95329613	     16.30096815	      7.90125945	      1.21499724	      0.00000000	     -6.74076167	      0.01801655	      0.87777918	      2.82954300	     -9.09259991	     -4.27584042	     26.84888296	     96.30046220	     -0.03437731	    -12.44727917	      7.20441477	     32.83444457	     97.48652209
